HIERARCHY
ROOT joint_Root
{
	OFFSET 0.0 0.0 0.0
	CHANNELS 6 Xposition Yposition Zposition Zrotation Xrotation Yrotation 
	JOINT Hips
	{
		OFFSET 4.5925 91.4895 -427.239
		CHANNELS 6 Xposition Yposition Zposition Zrotation Xrotation Yrotation 
		JOINT Spine
		{
			OFFSET 15.7357 0.0 0.0
			CHANNELS 6 Xposition Yposition Zposition Zrotation Xrotation Yrotation 
			JOINT Chest
			{
				OFFSET 8.98455 -0.406207 0.0
				CHANNELS 6 Xposition Yposition Zposition Zrotation Xrotation Yrotation 
				JOINT Neck
				{
					OFFSET 16.3773 0.0 0.0
					CHANNELS 6 Xposition Yposition Zposition Zrotation Xrotation Yrotation 
					JOINT Head
					{
						OFFSET 6.45672 0.0 0.0
						CHANNELS 6 Xposition Yposition Zposition Zrotation Xrotation Yrotation 
						End Site
						{
							OFFSET 0.0 0.0 0.0
						}
					}
				}
				JOINT Shoulder_L
				{
					OFFSET 12.9942 -0.242716 4.98039
					CHANNELS 6 Xposition Yposition Zposition Zrotation Xrotation Yrotation 
					JOINT UpperArm_L
					{
						OFFSET 5.34809 0.0 0.0
						CHANNELS 6 Xposition Yposition Zposition Zrotation Xrotation Yrotation 
						JOINT LowerArm_L
						{
							OFFSET 24.3286 1.87007e-05 0.0
							CHANNELS 6 Xposition Yposition Zposition Zrotation Xrotation Yrotation 
							JOINT Hand_L
							{
								OFFSET 22.2916 0.0 0.0
								CHANNELS 6 Xposition Yposition Zposition Zrotation Xrotation Yrotation 
								End Site
								{
									OFFSET 0.0 0.0 0.0
								}
							}
						}
					}
				}
				JOINT Shoulder_R
				{
					OFFSET 12.9945 -0.242716 -4.98039
					CHANNELS 6 Xposition Yposition Zposition Zrotation Xrotation Yrotation 
					JOINT UpperArm_R
					{
						OFFSET -5.34813 0.0 0.0
						CHANNELS 6 Xposition Yposition Zposition Zrotation Xrotation Yrotation 
						JOINT LowerArm_R
						{
							OFFSET -24.3289 0.000322201 0.0
							CHANNELS 6 Xposition Yposition Zposition Zrotation Xrotation Yrotation 
							JOINT Hand_R
							{
								OFFSET -22.2915 -0.000108084 0.0
								CHANNELS 6 Xposition Yposition Zposition Zrotation Xrotation Yrotation 
								End Site
								{
									OFFSET 0.0 0.0 0.0
								}
							}
						}
					}
				}
			}
		}
		JOINT UpperLeg_L
		{
			OFFSET -2.19248 -6.46944 0.0
			CHANNELS 6 Xposition Yposition Zposition Zrotation Xrotation Yrotation 
			JOINT LowerLeg_L
			{
				OFFSET 39.0811 0.0 -1.23785e-05
				CHANNELS 6 Xposition Yposition Zposition Zrotation Xrotation Yrotation 
				JOINT Foot_L
				{
					OFFSET 40.9854 0.0 -1.26872e-05
					CHANNELS 6 Xposition Yposition Zposition Zrotation Xrotation Yrotation 
					JOINT Toes_L
					{
						OFFSET 11.7543 0.0 0.0
						CHANNELS 6 Xposition Yposition Zposition Zrotation Xrotation Yrotation 
						End Site
						{
							OFFSET 0.0 0.0 0.0
						}
					}
				}
			}
		}
		JOINT UpperLeg_R
		{
			OFFSET -2.19251 6.46944 0.0
			CHANNELS 6 Xposition Yposition Zposition Zrotation Xrotation Yrotation 
			JOINT LowerLeg_R
			{
				OFFSET -39.0811 -0.00228153 -0.0401928
				CHANNELS 6 Xposition Yposition Zposition Zrotation Xrotation Yrotation 
				JOINT Foot_R
				{
					OFFSET -40.9854 0.0 0.0
					CHANNELS 6 Xposition Yposition Zposition Zrotation Xrotation Yrotation 
					JOINT Toes_R
					{
						OFFSET -11.7543 0.0 0.0
						CHANNELS 6 Xposition Yposition Zposition Zrotation Xrotation Yrotation 
						End Site
						{
							OFFSET 0.0 0.0 0.0
						}
					}
				}
			}
		}
	}
}
MOTION
Frames:	4
Frame Time:	0.0333333
0.000000 0.000000 0.000000 0.000000 0.000000 -0.000000 -1.636440 90.546200 -4.302370 88.904500 -1.514550 14.723000 15.735700 0.000005 -0.000001 89.086700 76.465300 -89.319400 8.984550 -0.406207 -0.000000 19.299500 -0.445740 -0.390773 16.377300 -0.000001 -0.000001 10.775200 -3.961030 1.922360 6.456720 -0.000001 -0.000000 -10.411100 -3.771700 2.016950 12.994200 -0.242716 4.980390 -91.179800 4.732670 -75.985000 5.348090 -0.000007 -0.000001 -79.098300 -9.683140 -52.168700 24.328600 0.000019 0.000005 42.274900 -17.815900 -108.600000 22.291600 -0.000001 0.000005 32.529600 4.905020 9.277400 12.994500 -0.242716 -4.980390 88.952600 7.118510 -81.607300 -5.348130 -0.000001 -0.000004 -66.784500 -11.061700 -53.305300 -24.328900 0.000322 -0.000009 26.568800 -12.049600 -112.658000 -22.291500 -0.000108 -0.000004 38.884400 5.291990 0.295803 -2.192480 -6.469440 -0.000000 -173.005000 -12.314800 -0.307878 39.081100 -0.000007 -0.000012 -0.138893 0.208995 33.607400 40.985400 -0.000006 -0.000013 0.700757 7.124610 -68.285700 11.754300 -0.000000 0.000003 -0.000194 -0.001807 -16.645800 -2.192510 6.469440 -0.000001 174.000000 21.169900 -177.976000 -39.081100 -0.002282 -0.040193 -0.210837 0.337970 32.358100 -40.985400 0.000008 0.000006 5.118490 15.751500 -69.463000 -11.754300 -0.000006 -0.000006 -0.002643 -0.036495 -18.057200
0.000000 0.000000 0.000000 0.000000 0.000000 -0.000000 -1.641510 90.543400 -4.234290 88.900200 -1.586920 14.641200 15.735700 0.000005 -0.000001 89.156400 76.482100 -89.395400 8.984550 -0.406207 -0.000000 19.266300 -0.413640 -0.409207 16.377300 -0.000001 -0.000001 10.826600 -3.959040 1.929820 6.456720 -0.000001 -0.000000 -10.398300 -3.787780 2.000560 12.994200 -0.242716 4.980390 -91.198600 4.796890 -75.952700 5.348090 -0.000007 -0.000001 -81.141500 -11.921600 -51.840500 24.328600 0.000019 0.000005 41.979500 -17.729200 -108.698000 22.291600 -0.000001 0.000005 32.963500 4.886450 9.646940 12.994500 -0.242716 -4.980390 88.936100 7.149720 -81.513700 -5.348130 -0.000001 -0.000004 -69.089600 -12.461600 -53.084200 -24.328900 0.000322 -0.000009 26.272100 -11.974600 -112.798000 -22.291500 -0.000108 -0.000004 39.029400 5.290480 0.337581 -2.192480 -6.469440 -0.000000 -173.006000 -12.318800 -0.341163 39.081100 -0.000007 -0.000012 -0.142080 0.213715 33.616700 40.985400 -0.000006 -0.000013 0.673429 7.053770 -68.337500 11.754300 -0.000000 0.000003 -0.000201 -0.001858 -16.647600 -2.192510 6.469440 -0.000001 174.036000 21.127200 -178.026000 -39.081100 -0.002282 -0.040193 -0.211310 0.338670 32.361700 -40.985400 0.000008 0.000006 5.124250 15.769000 -69.507400 -11.754300 -0.000006 -0.000006 -0.002453 -0.034256 -17.966100
0.000000 0.000000 0.000000 0.000000 0.000000 -0.000000 -1.648300 90.541500 -4.156450 88.889600 -1.618510 14.611700 15.735700 0.000005 -0.000001 89.194800 76.485200 -89.442600 8.984550 -0.406207 -0.000000 19.260400 -0.396650 -0.429496 16.377300 -0.000001 -0.000001 10.905300 -3.965080 1.946290 6.456720 -0.000001 -0.000000 -10.389900 -3.804270 1.989840 12.994200 -0.242716 4.980390 -91.215200 4.843180 -75.897100 5.348090 -0.000007 -0.000001 -82.802200 -13.786300 -51.654200 24.328600 0.000019 0.000005 41.682400 -17.650000 -108.805000 22.291600 -0.000001 0.000005 33.274400 4.861810 10.131100 12.994500 -0.242716 -4.980390 88.927900 7.161220 -81.462700 -5.348130 -0.000001 -0.000004 -70.961600 -13.673100 -52.918300 -24.328900 0.000322 -0.000009 26.364700 -12.055100 -112.849000 -22.291500 -0.000108 -0.000004 39.406700 5.279140 0.649485 -2.192480 -6.469440 -0.000000 -172.974000 -12.316500 -0.308013 39.081100 -0.000007 -0.000012 -0.146545 0.220426 33.617200 40.985400 -0.000006 -0.000013 0.649292 7.036100 -68.394000 11.754300 -0.000000 0.000003 -0.000202 -0.001865 -16.647900 -2.192510 6.469440 -0.000001 174.041000 21.135900 -177.994000 -39.081100 -0.002282 -0.040193 -0.209711 0.336289 32.350700 -40.985400 0.000008 0.000006 5.136190 15.805900 -69.558700 -11.754300 -0.000006 -0.000006 -0.002549 -0.035390 -18.012200
0.000000 0.000000 0.000000 0.000000 0.000000 -0.000000 -1.671430 90.540300 -4.090620 88.857200 -1.619830 14.550600 15.735700 0.000005 -0.000001 89.262000 76.484400 -89.511500 8.984550 -0.406207 -0.000000 19.262400 -0.365783 -0.438108 16.377300 -0.000001 -0.000001 10.933600 -3.946930 1.949910 6.456720 -0.000001 -0.000000 -10.352900 -3.810480 2.036750 12.994200 -0.242716 4.980390 -91.225800 4.875120 -75.867500 5.348090 -0.000007 -0.000001 -83.976700 -15.128700 -51.679800 24.328600 0.000019 0.000005 41.269600 -17.520700 -108.934000 22.291600 -0.000001 0.000005 33.618600 4.858520 10.195500 12.994500 -0.242716 -4.980390 88.911400 7.220940 -81.403100 -5.348130 -0.000001 -0.000004 -72.263800 -14.655300 -52.886300 -24.328900 0.000322 -0.000009 26.125100 -12.007200 -112.985000 -22.291500 -0.000108 -0.000004 39.678800 5.276520 0.721172 -2.192480 -6.469440 -0.000000 -172.945000 -12.305300 -0.333005 39.081100 -0.000007 -0.000012 -0.146216 0.219796 33.633600 40.985400 -0.000006 -0.000013 0.631501 7.003720 -68.444000 11.754300 -0.000000 0.000003 -0.000186 -0.001743 -16.643400 -2.192510 6.469440 -0.000001 174.078000 21.153600 -177.985000 -39.081100 -0.002282 -0.040193 -0.214530 0.344252 32.324000 -40.985400 0.000008 0.000006 5.139690 15.812300 -69.601300 -11.754300 -0.000006 -0.000006 -0.002613 -0.036146 -18.043000
